<?xml version="1.0" encoding="UTF-8"?>
<svg xmlns="http://www.w3.org/2000/svg" viewBox="0 0 10200 1300">
  <g transform="translate(0 1025) scale(1 -1)" fill="#FFFFFF">
    <path transform="translate(0 0)" d="M493 698V187Q493 142 477.5 105.0Q462 68 433.5 42.0Q405 16 365.0 2.0Q325 -12 276 -12Q184 -12 129.5 34.0Q75 80 59 161L165 183Q174 140 199.0 111.0Q224 82 277 82Q326 82 353.5 111.5Q381 141 381 202V604H138V698Z"/>
    <path transform="translate(600 0)" d="M311 -12Q252 -12 205.0 7.0Q158 26 126.0 61.0Q94 96 77.0 145.5Q60 195 60 257Q60 319 77.5 369.0Q95 419 126.5 454.5Q158 490 203.0 509.0Q248 528 303 528Q357 528 401.0 509.5Q445 491 476.0 457.0Q507 423 523.5 376.0Q540 329 540 272V231H170V214Q170 153 208.0 114.5Q246 76 313 76Q363 76 398.5 97.5Q434 119 456 155L524 95Q498 50 444.5 19.0Q391 -12 311 -12ZM303 445Q274 445 249.5 435.0Q225 425 207.5 406.5Q190 388 180.0 363.0Q170 338 170 308V301H429V311Q429 372 394.5 408.5Q360 445 303 445Z"/>
    <path transform="translate(1200 0)" d="M84 0V516H193V428H198Q206 448 218.5 466.5Q231 485 249.0 498.5Q267 512 291.0 520.0Q315 528 347 528Q425 528 473.0 477.0Q521 426 521 332V0H412V316Q412 439 305 439Q284 439 264.0 433.5Q244 428 228.0 417.0Q212 406 202.5 389.0Q193 372 193 350V0Z"/>
    <path transform="translate(1800 0)" d="M301 -12Q217 -12 156.5 15.0Q96 42 59 87L126 147Q160 110 202.5 90.5Q245 71 303 71Q356 71 388.5 89.0Q421 107 421 145Q421 161 415.0 172.0Q409 183 398.0 190.0Q387 197 372.5 201.0Q358 205 342 207L260 220Q230 224 199.0 233.0Q168 242 143.5 258.5Q119 275 103.5 301.0Q88 327 88 367Q88 446 148.5 487.0Q209 528 308 528Q380 528 432.5 506.5Q485 485 520 447L459 383Q439 406 402.0 425.5Q365 445 304 445Q195 445 195 376Q195 343 218.5 330.5Q242 318 274 314L356 301Q387 296 417.5 288.0Q448 280 472.5 263.5Q497 247 512.5 221.0Q528 195 528 155Q528 77 467.5 32.5Q407 -12 301 -12Z"/>
    <path transform="translate(2400 0)" d="M311 -12Q252 -12 205.0 7.0Q158 26 126.0 61.0Q94 96 77.0 145.5Q60 195 60 257Q60 319 77.5 369.0Q95 419 126.5 454.5Q158 490 203.0 509.0Q248 528 303 528Q357 528 401.0 509.5Q445 491 476.0 457.0Q507 423 523.5 376.0Q540 329 540 272V231H170V214Q170 153 208.0 114.5Q246 76 313 76Q363 76 398.5 97.5Q434 119 456 155L524 95Q498 50 444.5 19.0Q391 -12 311 -12ZM303 445Q274 445 249.5 435.0Q225 425 207.5 406.5Q190 388 180.0 363.0Q170 338 170 308V301H429V311Q429 372 394.5 408.5Q360 445 303 445Z"/>
    <path transform="translate(3000 0)" d="M84 0V516H193V428H198Q206 448 218.5 466.5Q231 485 249.0 498.5Q267 512 291.0 520.0Q315 528 347 528Q425 528 473.0 477.0Q521 426 521 332V0H412V316Q412 439 305 439Q284 439 264.0 433.5Q244 428 228.0 417.0Q212 406 202.5 389.0Q193 372 193 350V0Z"/>
    <path transform="translate(4200 0)" d="M300 -12Q234 -12 185.5 12.5Q137 37 105.5 83.0Q74 129 59.0 196.0Q44 263 44 349Q44 434 59.0 501.5Q74 569 105.5 615.0Q137 661 185.5 685.5Q234 710 300 710Q366 710 414.5 685.5Q463 661 494.5 615.0Q526 569 541.0 501.5Q556 434 556 349Q556 263 541.0 196.0Q526 129 494.5 83.0Q463 37 414.5 12.5Q366 -12 300 -12ZM300 81Q375 81 406.0 137.5Q437 194 437 291V408Q437 504 406.0 560.5Q375 617 300 617Q225 617 194.0 560.5Q163 504 163 408V290Q163 194 194.0 137.5Q225 81 300 81Z"/>
    <path transform="translate(4800 0)" d="M79 516H188V428H194Q217 475 255.0 501.5Q293 528 350 528Q441 528 495.0 460.0Q549 392 549 258Q549 124 495.0 56.0Q441 -12 350 -12Q293 -12 255.0 14.5Q217 41 194 88H188V-200H79ZM305 77Q367 77 400.5 115.0Q434 153 434 216V300Q434 363 400.5 401.0Q367 439 305 439Q281 439 260.0 433.0Q239 427 223.0 415.0Q207 403 197.5 385.5Q188 368 188 344V172Q188 148 197.5 130.5Q207 113 223.0 101.0Q239 89 260.0 83.0Q281 77 305 77Z"/>
    <path transform="translate(5400 0)" d="M311 -12Q252 -12 205.0 7.0Q158 26 126.0 61.0Q94 96 77.0 145.5Q60 195 60 257Q60 319 77.5 369.0Q95 419 126.5 454.5Q158 490 203.0 509.0Q248 528 303 528Q357 528 401.0 509.5Q445 491 476.0 457.0Q507 423 523.5 376.0Q540 329 540 272V231H170V214Q170 153 208.0 114.5Q246 76 313 76Q363 76 398.5 97.5Q434 119 456 155L524 95Q498 50 444.5 19.0Q391 -12 311 -12ZM303 445Q274 445 249.5 435.0Q225 425 207.5 406.5Q190 388 180.0 363.0Q170 338 170 308V301H429V311Q429 372 394.5 408.5Q360 445 303 445Z"/>
    <path transform="translate(6000 0)" d="M76 88H213V428H76V516H322V379H328Q335 406 348.0 431.0Q361 456 381.0 474.5Q401 493 430.0 504.5Q459 516 498 516H560V412H458Q398 412 360.0 376.5Q322 341 322 281V88H509V0H76Z"/>
    <path transform="translate(6600 0)" d="M492 0Q445 0 421.5 24.0Q398 48 393 87H388Q373 40 333.5 14.0Q294 -12 233 -12Q154 -12 107.0 29.5Q60 71 60 144Q60 219 115.5 258.5Q171 298 286 298H385V338Q385 443 274 443Q224 443 193.0 423.5Q162 404 141 372L76 425Q98 467 150.0 497.5Q202 528 284 528Q382 528 438.0 481.0Q494 434 494 345V86H559V0ZM264 68Q317 68 351.0 92.0Q385 116 385 154V229H288Q170 229 170 158V138Q170 103 195.0 85.5Q220 68 264 68Z"/>
    <path transform="translate(7200 0)" d="M331 0Q263 0 231.0 36.5Q199 73 199 131V428H40V516H153Q182 516 194.0 527.5Q206 539 206 569V698H308V516H528V428H308V88H528V0Z"/>
    <path transform="translate(7800 0)" d="M332 610Q290 610 273.5 627.0Q257 644 257 669V690Q257 715 273.5 732.0Q290 749 331 749Q373 749 389.5 732.0Q406 715 406 690V669Q406 644 389.5 627.0Q373 610 332 610ZM101 88H277V428H101V516H386V88H551V0H101Z"/>
    <path transform="translate(8400 0)" d="M300 -12Q243 -12 197.5 7.0Q152 26 120.5 61.0Q89 96 72.0 146.0Q55 196 55 258Q55 320 72.0 370.0Q89 420 120.5 455.0Q152 490 197.5 509.0Q243 528 300 528Q357 528 402.5 509.0Q448 490 479.5 455.0Q511 420 528.0 370.0Q545 320 545 258Q545 196 528.0 146.0Q511 96 479.5 61.0Q448 26 402.5 7.0Q357 -12 300 -12ZM300 74Q360 74 395.5 110.5Q431 147 431 219V297Q431 369 395.5 405.5Q360 442 300 442Q240 442 204.5 405.5Q169 369 169 297V219Q169 147 204.5 110.5Q240 74 300 74Z"/>
    <path transform="translate(9000 0)" d="M84 0V516H193V428H198Q206 448 218.5 466.5Q231 485 249.0 498.5Q267 512 291.0 520.0Q315 528 347 528Q425 528 473.0 477.0Q521 426 521 332V0H412V316Q412 439 305 439Q284 439 264.0 433.5Q244 428 228.0 417.0Q212 406 202.5 389.0Q193 372 193 350V0Z"/>
    <path transform="translate(9600 0)" d="M301 -12Q217 -12 156.5 15.0Q96 42 59 87L126 147Q160 110 202.5 90.5Q245 71 303 71Q356 71 388.5 89.0Q421 107 421 145Q421 161 415.0 172.0Q409 183 398.0 190.0Q387 197 372.5 201.0Q358 205 342 207L260 220Q230 224 199.0 233.0Q168 242 143.5 258.5Q119 275 103.5 301.0Q88 327 88 367Q88 446 148.5 487.0Q209 528 308 528Q380 528 432.5 506.5Q485 485 520 447L459 383Q439 406 402.0 425.5Q365 445 304 445Q195 445 195 376Q195 343 218.5 330.5Q242 318 274 314L356 301Q387 296 417.5 288.0Q448 280 472.5 263.5Q497 247 512.5 221.0Q528 195 528 155Q528 77 467.5 32.5Q407 -12 301 -12Z"/>
  </g>
</svg>
